<?xml version="1.0" encoding="utf-8"?>
<!-- Generator: Adobe Illustrator 27.6.1, SVG Export Plug-In . SVG Version: 6.00 Build 0)  -->
<svg version="1.1" id="Layer_1" xmlns="http://www.w3.org/2000/svg" xmlns:xlink="http://www.w3.org/1999/xlink" x="0px" y="0px"
	 viewBox="0 0 1920 5432" style="enable-background:new 0 0 1920 5432;" xml:space="preserve">
<style type="text/css">
	.st0{fill:#2E3192;}
	.st1{fill:#053C4A;}
	.st2{fill:#6868AF;}
	.st3{fill:#DBA28F;}
	.st4{fill:#EE2A7B;}
	.st5{fill:#7BCADD;}
	.st6{fill:#1D99AE;}
	.st7{fill:#9E1F63;}
	.st8{fill:#92278F;}
	.st9{fill:#168497;}
	.st10{fill:#0E7182;}
	.st11{fill:#0B5C71;}
	.st12{fill:#0D5D72;}
	.st13{fill:#313186;}
	.st14{fill:#053A47;}
</style>
<g>
	<path class="st0" d="M301.9,473.2"/>
	<rect class="st1" width="1919.3" height="2716"/>
	<path class="st2" d="M635.8,765.4"/>
	<path class="st2" d="M1237.4,1129"/>
	<path class="st3" d="M1237.4,1311.9"/>
	<path class="st3" d="M385.8,847.4"/>
	<path class="st4" d="M1511.9,501.6"/>
	<g>
		<path class="st5" d="M1757.3,335.1c0,37.1-48.4,67.4-108.1,67.4s-78.4-77.4-108.1-67.4c-35.2,11.9,48.4-67.4,108.1-67.4
			c29.7,0,56.4,7.4,76.1,19.4C1745.1,299.7,1757.3,316.4,1757.3,335.1z"/>
		<g>
			<path class="st5" d="M1919.3,397.7c-131.9-8.1-171-88.4-171-88.4l-207.7,11.3c-272.2,263.5-331.3,698.7-331.3,698.7h226.8
				l483.2-46.4V397.7z"/>
		</g>
	</g>
	<path class="st4" d="M1824.1,435.1"/>
	<g>
		<path class="st6" d="M606.7,1320.9c-105.5-309.7-33.5-408-33.5-408l1016.1,12.9l55.2,500.6L606.7,1320.9z"/>
		<g>
			<g>
				<g>
					<path class="st6" d="M1450.3,840c0,171-111.3,309.7-248.7,309.7S952.9,1010.9,952.9,840s111.3-309.7,248.7-309.7
						c53.5,0,102.9,21,143.2,56.8C1408.6,642.9,1450.3,735.4,1450.3,840z"/>
					<path class="st6" d="M1050.6,593.8c0,0-40.6,75.8-159.3,72.6c-118.7-3.2-141.6,21.3-141.6,21.3s-229,111-227.4,330.3
						c1.6,219.3,714.2,107.1,714.2,107.1l108.4-437.4L1050.6,593.8z"/>
				</g>
				<path class="st6" d="M1365.7,607.4c0,0,230.3,392.9,307.4,353.9c77.1-38.7-304.8,108.7-304.8,108.7l-333.9-267.1L1365.7,607.4z"
					/>
			</g>
			<ellipse class="st6" cx="866.7" cy="743.2" rx="167.7" ry="77.7"/>
		</g>
	</g>
	<path class="st7" d="M1552.5,659.3"/>
	<path class="st8" d="M462.2,1032.9"/>
	<g>
		<polygon class="st5" points="0,728.7 0.3,1012.9 298.4,1012.9 		"/>
		<g>
			<g>
				<ellipse class="st5" cx="333.9" cy="835.4" rx="322.6" ry="191.6"/>
				<path class="st5" d="M281,530.3c0,0,62.3,113.5,145.2,121.6c82.9,8.1,139.7,129,139.7,129L97.1,938.3l-41.9-269L281,530.3z"/>
			</g>
			<path class="st5" d="M36.8,416.4c-12.6,0-24.8,0.6-36.8,1.9v132.3v63.5v155.5c11.9,1.3,24.2,1.6,36.8,1.6
				c144.2,0,261.3-79.4,261.3-177.4S181,416.4,36.8,416.4z"/>
		</g>
	</g>
	<path class="st4" d="M97.1,1283.8"/>
	<g>
		<g>
			<g>
				<g>
					<path class="st9" d="M1920.6,763.2l-106.8-31c0,0-55.8,83.2-176.4,100.6c-41.6,6.1-73.2,19.4-100,36.8
						c-37.1,24.2-136.8,70.3-203.9,43.2c-67.1-27.1-114.5-14.5-145.5,4.8c-20.3,12.6-57.7,43.9-71.6,63.2
						c-21.6,30-49.4,101-56.1,137.7c-10.3,55.5,5.2,216.4-98.1,202.9C859,1308,880.3,1577,880.3,1577l1040.3,127.7"/>
				</g>
				<path class="st9" d="M1796,755.8c104.8-76.1,124.5,52.3,124.5,52.3s-155.5,186.4-161.6,188.1c-6.1,1.6-258.4-25.2-258.4-25.2"/>
			</g>
		</g>
		<g>
			<path class="st9" d="M1919.3,659.3c-76.1,18.1-132.6,81.9-132.6,158.4c0,76.4,56.4,140.3,132.6,158.4V659.3z"/>
		</g>
	</g>
	<g>
		<path class="st9" d="M871.6,1031.9c84.8,365.8,35.8,474.5,35.8,474.5L0,1512.5V984.1l456.1,171L871.6,1031.9z"/>
		<g>
			<path class="st9" d="M584.2,883.8L584.2,883.8L584.2,883.8c-1.3,1.9-13.5,17.7-33.9,38.1c-73.2,72.6-253.9,199.7-425.5-91.9l0,0
				l-97.7,36.4l-11.3,136.8l171,100.3l437.1,96.4h6.1L584.2,883.8z"/>
			<path class="st9" d="M124.8,830.9c-5.2-9.4-11-18.1-18.1-25.2c-17.4-18.1-40-29-64.8-29c-15.2,0-29.4,3.9-41.9,11.3l0,0v209.7
				c4.8,2.9,10.3,5.2,15.5,6.8l11.3-137.1L124.8,830.9z"/>
			<path class="st9" d="M688.4,841.6c-38.4,0-74.2,15.5-103.9,41.9l45.5,316.4h-6.1c111,20,254.8-13.5,254.8-101
				C878.7,957.1,793.2,841.6,688.4,841.6z"/>
			<path class="st9" d="M550.6,922.9c20.3-20.3,32.3-36.1,33.5-37.7C571.9,895.8,560.6,908.3,550.6,922.9z"/>
		</g>
	</g>
	<g>
		<g>
			<g>
				<ellipse class="st10" cx="390.3" cy="1354.5" rx="131.9" ry="151.6"/>
				<ellipse class="st10" cx="948.3" cy="1436.4" rx="303.2" ry="171"/>
				<path class="st10" d="M0,1039.6c167.4-2.6,97.7,269.3,211.9,225.8c114.2-43.5,151.6-59.7,151.6-59.7l83.5,182.2l-136.8,238.1
					L0,1513.5v-247.7V1039.6z"/>
				<path class="st10" d="M436.4,1212.8c148.4,46.8,58.1,145.5,199.3,120.6c141.3-25.2,118.1-63.9,264.5-65.2s218.1,77.4,218.1,77.4
					l15.8,312.6c0,0-739.6,121.9-768.4,123.2c-28.7,1.3-339.7-41.6-339.7-41.6l100-264.5l304.2-262.6H436.4z"/>
			</g>
			<polygon class="st10" points="0,1528.3 0,2716 1919.3,2716 1919.3,1480.6 0,1480.6 			"/>
		</g>
		<g>
			<path class="st10" d="M1919.3,1061.9c-26.8,22.9-54.5,52.3-82.9,89.4c-233.5,309.3-500.9,354.8-612.6,216.4l-361.9,138.4
				c0,0-12.3,126.1-11.3,139s220.3,181.6,253.9,184.8c33.2,3.2,451.6,30,470,29c9.4-0.6,178.7-7.1,344.8-14.5L1919.3,1061.9
				L1919.3,1061.9z"/>
		</g>
	</g>
	<g>
		<path class="st11" d="M195.8,2180.5c-82.9,0-155.5,34.2-195.8,85.2v184.5c40.3,51,112.9,85.2,195.8,85.2
			c126.4,0,229-79.4,229-177.4S322.2,2180.5,195.8,2180.5z"/>
		<path class="st11" d="M1918.9,2038.6c-46.1,24.8-97.4,120.6-150.6,182.5c-74.5,86.7-158.9,0.6-248.6-24.5
			c-89.6-25.1-272.4,267.6-382,171.5c-109.6-96.1-249.2,8.7-365.9,31.3S345,2224,345,2224c-146.4-58-266.3-32.9-345,2.3V2716h1919.3
			v-677.4H1918.9z"/>
	</g>
	<path class="st0" d="M301.9,3188.9"/>
	<rect y="2716" class="st12" width="1919.3" height="2716"/>
	<path class="st2" d="M635.8,3481.1"/>
	<path class="st2" d="M1237.4,3844.7"/>
	<path class="st3" d="M1237.4,4027.2"/>
	<path class="st3" d="M385.8,3563.1"/>
	<path class="st4" d="M1511.9,3217.3"/>
	<path class="st4" d="M1824.1,3150.8"/>
	<path class="st7" d="M1552.5,3374.7"/>
	<path class="st8" d="M462.2,3748.5"/>
	<path class="st4" d="M97.1,3999.5"/>
	<g>
		<path class="st11" d="M195.8,4896.2c-82.9,0-155.5,34.2-195.8,85.2v184.5c40.3,51,112.9,85.2,195.8,85.2
			c126.4,0,229-79.4,229-177.4C424.8,4975.6,322.2,4896.2,195.8,4896.2z"/>
		<path class="st11" d="M1918.9,4754.6c-46.1,24.8-97.4,120.6-150.6,182.5c-74.5,86.7-158.9,0.6-248.6-24.5
			c-89.6-25.1-272.4,267.6-382,171.5s-249.2,8.7-365.9,31.3S345,4940,345,4940c-146.4-58-266.3-32.9-345,2.3V5432h1919.3v-677.4
			H1918.9z"/>
	</g>
	<ellipse class="st13" cx="845.4" cy="4133.4" rx="233.2" ry="157.1"/>
	<ellipse class="st13" cx="1664.8" cy="3999.5" rx="233.2" ry="157.1"/>
	<path class="st14" d="M1919.3,3716.9c-53.8-67.7-68-133.2-168.6-224.5c-141.9-129-232.1,17.1-320.1,139.7
		c-88,122.6-144.1,228.1-419.1,120.3c-275-107.7-286,25.8-477.2,81.9c-191.5,56.4-408.5-352.9-483-362.9c-13.2-1.9-31,0-51.3,4.5
		v1956h1919.3V3716.9z"/>
</g>
</svg>
