<?xml version="1.0" encoding="utf-8"?>
<!-- Generator: Adobe Illustrator 27.6.1, SVG Export Plug-In . SVG Version: 6.00 Build 0)  -->
<svg version="1.1" id="Layer_1" xmlns="http://www.w3.org/2000/svg" xmlns:xlink="http://www.w3.org/1999/xlink" x="0px" y="0px"
	 viewBox="0 0 1920 1080" style="enable-background:new 0 0 1920 1080;" xml:space="preserve">
<style type="text/css">
	.st0{fill:#2E3192;}
	.st1{fill:#053C4A;}
	.st2{fill:#6868AF;}
	.st3{fill:#DBA28F;}
	.st4{fill:#EE2A7B;}
	.st5{fill:#7BCADD;}
	.st6{fill:#1D99AE;}
	.st7{fill:#9E1F63;}
	.st8{fill:#92278F;}
	.st9{fill:#168497;}
	.st10{fill:#0E7182;}
	.st11{fill:#0B5C71;}
</style>
<path class="st0" d="M298.5,469.3"/>
<rect class="st1" width="1920" height="1080"/>
<path class="st2" d="M638.1,766.5"/>
<path class="st2" d="M1250,1136.4"/>
<path class="st3" d="M1250,1322.4"/>
<path class="st3" d="M383.8,849.9"/>
<path class="st4" d="M1529.3,498.2"/>
<g>
	<path class="st5" d="M1778.9,189.3c0,37.7-49.2,68.6-110,68.6c-60.7,0-79.7-78.7-110-68.6c-35.8,12.1,49.2-68.6,110-68.6
		c30.2,0,57.4,7.5,77.4,19.7C1766.5,153.3,1778.9,170.3,1778.9,189.3z"/>
	<g>
		<path class="st5" d="M1943.7,253c-134.2-8.2-173.9-89.9-173.9-89.9l-211.3,11.5c-276.9,268-337,710.7-337,710.7h230.7l467.8-44.9
			L1943.7,253L1943.7,253z"/>
	</g>
</g>
<path class="st4" d="M1846.8,430.5"/>
<g>
	<path class="st6" d="M606.7,1072c-107.3-315-32.3-376.4-32.3-376.4L1608,708.7l32,360.6L606.7,1072z"/>
	<g>
		<g>
			<g>
				<path class="st6" d="M1466.6,621.4c0,173.9-113.2,315-253,315s-253-141.2-253-315s113.2-315,253-315
					c54.4,0,104.7,21.4,145.7,57.8C1424.2,420.9,1466.6,515,1466.6,621.4z"/>
				<path class="st6" d="M1060,371c0,0-41.3,77.1-162,73.8c-120.7-3.3-144,21.7-144,21.7s-233,112.9-231.4,336
					s726.5,108.9,726.5,108.9l110.3-444.9L1060,371z"/>
			</g>
			<path class="st6" d="M1380.6,384.8c0,0,234.3,399.7,312.7,360c78.4-39.4-310,110.6-310,110.6l-339.6-271.7L1380.6,384.8z"/>
		</g>
		<ellipse class="st6" cx="873" cy="522.9" rx="170.6" ry="79"/>
	</g>
</g>
<path class="st7" d="M1570.6,658.6"/>
<path class="st8" d="M461.5,1038.6"/>
<g>
	<polygon class="st5" points="0,516 0,797 294.9,797.3 	"/>
	<g>
		<g>
			<ellipse class="st5" cx="331" cy="660.5" rx="328.1" ry="194.9"/>
			<path class="st5" d="M277.2,350.2c0,0,63.4,115.5,147.7,123.7S567,605.1,567,605.1L90.1,765.2L47.5,491.6L277.2,350.2z"/>
		</g>
		<path class="st5" d="M28.8,234.3c-12.8,0-24.6-1.6-28.8-1.5l-0.6,136.8L0,436.8l2,158c12.1,1.3,14,0.4,26.8,0.4
			c146.7,0,265.8-80.8,265.8-180.5S175.5,234.3,28.8,234.3z"/>
	</g>
</g>
<path class="st4" d="M90.1,1293.8"/>
<g>
	<g>
		<g>
			<g>
				<path class="st9" d="M1920,341.4l-62-14.4c0,0-78.1,73.4-200.7,91.1c-42.3,6.2-74.5,19.7-101.7,37.4
					c-37.7,24.6-139.2,71.5-207.4,43.9c-68.3-27.6-116.5-14.7-148,4.9c-20.6,12.8-58.7,44.7-72.8,64.3
					c-22,30.5-50.2,102.7-57.1,140.1c-10.5,56.5,5.3,220.1-99.8,206.4c-105-13.6-82.8,143.4-82.8,143.4L1920,1080"/>
			</g>
			<path class="st9" d="M1818.6,339.8c106.6-77.4,126.6,53.2,126.6,53.2S1787,582.6,1780.8,584.3c-6.2,1.6-262.8-25.6-262.8-25.6"/>
		</g>
	</g>
</g>
<g>
	<path class="st9" d="M878,645.6c86.3,372.1,48.6,418.6,48.6,418.6L0,1080V597l455.3,173.9L878,645.6z"/>
	<g>
		<path class="st9" d="M585.6,495L585.6,495L585.6,495c-1.3,1.9-13.7,18-34.5,38.8c-74.5,73.8-258.3,203.1-432.8-93.5l0,0l-99.4,37
			L7.4,616.4l173.9,102L626,816.5h6.2L585.6,495z"/>
		<path class="st9" d="M118.3,441.1c-5.3-9.6-11.2-18.4-18.4-25.6C82.2,397.1,59.2,386,34,386c-15.5,0-21.3-0.5-34,7l0,0v226
			c4.9,2.9,0-1,7.1-1.3l11.5-139.5L118.3,441.1z"/>
		<path class="st9" d="M691.6,452c-39.1,0-75.5,15.8-105.7,42.6l46.3,321.8H626c112.9,20.3,259.2-13.7,259.2-102.7
			C885.2,569.5,798.2,452,691.6,452z"/>
		<path class="st9" d="M551.4,534.7c20.6-20.6,32.9-36.7,34.1-38.3C573.1,507.2,561.6,519.9,551.4,534.7z"/>
	</g>
</g>
<path class="st10" d="M1186.8,795.6c0,0,222.5,164.8,401.2,80.2s100,94,100,94h-519l-87-16L1186.8,795.6z"/>
<g>
	<g>
		<g>
			<ellipse class="st10" cx="388.4" cy="827.5" rx="134.2" ry="154.2"/>
			<path class="st10" d="M647.6,910.9c0-96,138.1-185.6,308.4-185.6s308.4,89.5,308.4,185.6"/>
			<path class="st10" d="M3,509.8c170.3-2.6,88.7,272.4,204.9,228.1c116.2-44.2,154.2-60.7,154.2-60.7L447,862.5l-140,175.3l-307-45
				v-254L3,509.8z"/>
			<path class="st10" d="M435.3,683.4c151,47.6,59.1,148,202.7,122.7c143.7-25.6,120.1-65,269-66.3s221.9,78.7,221.9,78.7
				l-21.9,219.3c0,0-644.7-1.3-674,0c-29.2,1.3-378,0-378,0l64.5-87.4L429,683.3L435.3,683.4L435.3,683.4z"/>
		</g>
	</g>
</g>
<path class="st0" d="M298.5,3231.7"/>
<g>
	<g>
		<path class="st11" d="M190.5,741.6c-84.3,0-149.5,26.1-190.5,78l29,124c41,51.9,65.7,26,150,26c128.6,0,244.5,52.2,244.5-47.5
			S319.1,741.6,190.5,741.6z"/>
		<path class="st11" d="M1920,597.6c-46.9,25.2-75.8,122.3-129.9,185.3c-75.8,88.2-161.6,0.6-252.9-24.9
			c-91.1-25.5-277.1,272.2-388.6,174.4s-253.5,8.8-372.2,31.8S342.3,785.8,342.3,785.8c-148.9-59-262.2-34-342.3,1.8V1080h1920
			V597.6L1920,597.6z"/>
	</g>
</g>
<path class="st2" d="M638.1,3528.9"/>
<path class="st2" d="M1250,3898.8"/>
<path class="st3" d="M1250,4084.4"/>
<path class="st3" d="M383.8,3612.3"/>
<path class="st4" d="M1529.3,3260.6"/>
<path class="st4" d="M1846.8,3192.9"/>
<path class="st7" d="M1570.6,3420.7"/>
<path class="st8" d="M461.5,3800.9"/>
<path class="st4" d="M90.1,4056.2"/>
</svg>
