<?xml version="1.0" encoding="utf-8"?>
<!-- Generator: Adobe Illustrator 27.6.1, SVG Export Plug-In . SVG Version: 6.00 Build 0)  -->
<svg version="1.1" id="Layer_1" xmlns="http://www.w3.org/2000/svg" xmlns:xlink="http://www.w3.org/1999/xlink" x="0px" y="0px"
	 viewBox="0 0 1920 1080" style="enable-background:new 0 0 1920 1080;" xml:space="preserve">
<style type="text/css">
	.st0{fill:#2E3192;}
	.st1{fill:#053C4A;}
	.st2{fill:#6868AF;}
	.st3{fill:#DBA28F;}
	.st4{fill:#EE2A7B;}
	.st5{fill:#7BCADD;}
	.st6{fill:#1D99AE;}
	.st7{fill:#9E1F63;}
	.st8{fill:#92278F;}
	.st9{fill:#168497;}
	.st10{fill:#0E7182;}
	.st11{fill:#0B5C71;}
</style>
<path class="st0" d="M298.5,469.3"/>
<rect class="st1" width="1920" height="1080"/>
<path class="st2" d="M638.1,766.5"/>
<path class="st2" d="M1250,1136.4"/>
<path class="st3" d="M1250,1322.4"/>
<path class="st3" d="M383.8,849.9"/>
<path class="st4" d="M1529.3,498.2"/>
<g>
	<path class="st5" d="M1778.9,107.8c0,37.7-49.2,68.6-110,68.6c-60.7,0-79.7-78.7-110-68.6c-35.8,12.1,49.2-68.6,110-68.6
		c30.2,0,57.4,7.5,77.4,19.7C1766.5,71.8,1778.9,88.8,1778.9,107.8z"/>
	<g>
		<path class="st5" d="M1943.7,171.5c-134.2-8.2-173.9-89.9-173.9-89.9l-211.3,11.5c-276.9,268-337,710.7-337,710.7h230.7
			l491.5-47.2V171.5z"/>
	</g>
</g>
<path class="st4" d="M1846.8,430.5"/>
<g>
	<path class="st6" d="M608.5,1110.6c-107.3-315-34.1-415-34.1-415L1608,708.7l56.1,509.2L608.5,1110.6z"/>
	<g>
		<g>
			<g>
				<path class="st6" d="M1466.6,621.4c0,173.9-113.2,315-253,315s-253-141.2-253-315s113.2-315,253-315
					c54.4,0,104.7,21.4,145.7,57.8C1424.2,420.9,1466.6,515,1466.6,621.4z"/>
				<path class="st6" d="M1060,371c0,0-41.3,77.1-162,73.8c-120.7-3.3-144,21.7-144,21.7S521,579.4,522.6,802.5
					s726.5,108.9,726.5,108.9l110.3-444.9L1060,371z"/>
			</g>
			<path class="st6" d="M1380.6,384.8c0,0,234.3,399.7,312.7,360c78.4-39.4-310,110.6-310,110.6l-339.6-271.7L1380.6,384.8z"/>
		</g>
		<ellipse class="st6" cx="873" cy="522.9" rx="170.6" ry="79"/>
	</g>
</g>
<path class="st7" d="M1570.6,658.6"/>
<path class="st8" d="M461.5,1038.6"/>
<g>
	<polygon class="st5" points="0,516 0,797 294.9,797.3 	"/>
	<g>
		<g>
			<ellipse class="st5" cx="331" cy="616.7" rx="328.1" ry="194.9"/>
			<path class="st5" d="M277.2,306.4c0,0,63.4,115.5,147.7,123.7S567,561.3,567,561.3L90.1,721.4L47.5,447.8L277.2,306.4z"/>
		</g>
		<path class="st5" d="M28.8,190.5C16,190.5,4.2,188.9,0,189l-0.6,136.8L0,393l2,158c12.1,1.3,14,0.4,26.8,0.4
			c146.7,0,265.8-80.8,265.8-180.5S175.5,190.5,28.8,190.5z"/>
	</g>
</g>
<path class="st4" d="M90.1,1293.8"/>
<g>
	<g>
		<g>
			<g>
				<path class="st9" d="M1945.3,347.3l-108.6-31.5c0,0-56.8,84.6-179.4,102.3c-42.3,6.2-74.5,19.7-101.7,37.4
					c-37.7,24.6-139.2,71.5-207.4,43.9c-68.3-27.6-116.5-14.7-148,4.9c-20.6,12.8-58.7,44.7-72.8,64.3
					c-22,30.5-50.2,102.7-57.1,140.1c-10.5,56.5,5.3,220.1-99.8,206.4c-105-13.6-83.3,260-83.3,260L1920,1080"/>
			</g>
			<path class="st9" d="M1818.6,339.8c106.6-77.4,126.6,53.2,126.6,53.2S1787,582.6,1780.8,584.3c-6.2,1.6-262.8-25.6-262.8-25.6"/>
		</g>
	</g>
	<g>
		<path class="st9" d="M1944,241.6c-77.4,18.4-134.9,83.3-134.9,161.1c0,77.7,57.4,142.7,134.9,161.1V241.6z"/>
	</g>
</g>
<g>
	<path class="st9" d="M878,645.6c86.3,372.1,36.4,482.7,36.4,482.7L0,1080V597l455.3,173.9L878,645.6z"/>
	<g>
		<path class="st9" d="M585.6,495L585.6,495L585.6,495c-1.3,1.9-13.7,18-34.5,38.8c-74.5,73.8-258.3,203.1-432.8-93.5l0,0l-99.4,37
			L7.4,616.4l173.9,102L626,816.5h6.2L585.6,495z"/>
		<path class="st9" d="M118.3,441.1c-5.3-9.6-11.2-18.4-18.4-25.6C82.2,397.1,59.2,386,34,386c-15.5,0-21.3-0.5-34,7l0,0v226
			c4.9,2.9,0-1,7.1-1.3l11.5-139.5L118.3,441.1z"/>
		<path class="st9" d="M691.6,452c-39.1,0-75.5,15.8-105.7,42.6l46.3,321.8H626c112.9,20.3,259.2-13.7,259.2-102.7
			C885.2,569.5,798.2,452,691.6,452z"/>
		<path class="st9" d="M551.4,534.7c20.6-20.6,32.9-36.7,34.1-38.3C573.1,507.2,561.6,519.9,551.4,534.7z"/>
	</g>
</g>
<g>
	<g>
		<g>
			<ellipse class="st10" cx="388.4" cy="869.7" rx="134.2" ry="154.2"/>
			<ellipse class="st10" cx="956" cy="953.1" rx="308.4" ry="173.9"/>
			<path class="st10" d="M3,552c170.3-2.6,88.7,272.4,204.9,228.1c116.2-44.2,154.2-60.7,154.2-60.7l84.9,185.3L307,1080L0,1035V781
				L3,552z"/>
			<path class="st10" d="M435.3,725.6c151,47.6,59.1,148,202.7,122.7c143.7-25.6,120.1-65,269-66.3c148.9-1.3,221.9,78.7,221.9,78.7
				L1107,1080c0,0-644.7-1.3-674,0c-29.2,1.3-378,0-378,0l64.5-87.4L429,725.5h6.3V725.6z"/>
		</g>
	</g>
	<g>
		<path class="st10" d="M1920,572c-27.3,23.3-31.8,53.3-60.6,91.1c-237.5,314.6-509.5,360.9-623.1,220.1L868.1,1024
			c0,0-12.1,25.9-11.1,39s215.8,0.7,250,4c33.8,3.3,457.3,5,476,4c9.6-0.6,153,7.5,322,0L1920,572L1920,572z"/>
	</g>
</g>
<path class="st0" d="M298.5,3231.7"/>
<g>
	<g>
		<path class="st11" d="M190.5,828C106.2,828,41,854.1,0,906l29,124c41,51.9,65.7,26,150,26c128.6,0,244.5,52.2,244.5-47.5
			S319.1,828,190.5,828z"/>
		<path class="st11" d="M1920,684c-46.9,25.2-75.8,122.3-129.9,185.3c-75.8,88.2-161.6,0.6-252.9-24.9
			c-91.1-25.5-277.1,272.2-388.6,174.4s-253.5,8.8-372.2,31.8S342.3,872.2,342.3,872.2c-148.9-59-262.2-34-342.3,1.8v206h1920V684
			L1920,684z"/>
	</g>
</g>
<path class="st2" d="M638.1,3528.9"/>
<path class="st2" d="M1250,3898.8"/>
<path class="st3" d="M1250,4084.4"/>
<path class="st3" d="M383.8,3612.3"/>
<path class="st4" d="M1529.3,3260.6"/>
<path class="st4" d="M1846.8,3192.9"/>
<path class="st7" d="M1570.6,3420.7"/>
<path class="st8" d="M461.5,3800.9"/>
<path class="st4" d="M90.1,4056.2"/>
</svg>
