<?xml version="1.0" encoding="utf-8"?>
<!-- Generator: Adobe Illustrator 27.6.1, SVG Export Plug-In . SVG Version: 6.00 Build 0)  -->
<svg version="1.1" id="Layer_1" xmlns="http://www.w3.org/2000/svg" xmlns:xlink="http://www.w3.org/1999/xlink" x="0px" y="0px"
	 viewBox="0 0 595.3 841.9" style="enable-background:new 0 0 595.3 841.9;" xml:space="preserve">
<style type="text/css">
	.st0{fill:#2E3192;}
	.st1{fill:#053C4A;}
	.st2{fill:#6868AF;}
	.st3{fill:#DBA28F;}
	.st4{fill:#EE2A7B;}
	.st5{fill:#7BCADD;}
	.st6{fill:#1D99AE;}
	.st7{fill:#9E1F63;}
	.st8{fill:#92278F;}
	.st9{fill:#168497;}
	.st10{fill:#0E7182;}
	.st11{fill:#0B5C71;}
	.st12{fill:#0D5D72;}
	.st13{fill:#313186;}
	.st14{fill:#053A47;}
</style>
<path class="st0" d="M93.5-695.2"/>
<rect y="-841.9" class="st1" width="595.3" height="841.9"/>
<path class="st2" d="M197-604.6"/>
<path class="st2" d="M383.5-491.9"/>
<path class="st3" d="M383.5-435.2"/>
<path class="st3" d="M119.5-579.2"/>
<path class="st4" d="M468.6-686.4"/>
<g>
	<path class="st5" d="M544.7-738c0,11.5-15,20.9-33.5,20.9s-24.3-24-33.5-20.9c-10.9,3.7,15-20.9,33.5-20.9c9.2,0,17.5,2.3,23.6,6
		C540.9-749,544.7-743.8,544.7-738z"/>
	<g>
		<path class="st5" d="M595.3-718.3c-40.9-2.5-53-27.4-53-27.4l-64.4,3.5c-84.4,81.7-102.7,216.6-102.7,216.6h70.3L595.3-540V-718.3
			z"/>
	</g>
</g>
<path class="st4" d="M565.4-707"/>
<g>
	<path class="st6" d="M188-432.6c-32.7-96-10.4-126.5-10.4-126.5l315,4l17.1,155.2L188-432.6z"/>
	<g>
		<g>
			<g>
				<path class="st6" d="M449.5-581.5c0,53-34.5,96-77.1,96s-77.1-43-77.1-96s34.5-96,77.1-96c16.6,0,31.9,6.5,44.4,17.6
					C436.6-642.6,449.5-613.9,449.5-581.5z"/>
				<path class="st6" d="M325.6-657.8c0,0-12.6,23.5-49.4,22.5s-43.9,6.6-43.9,6.6s-71,34.4-70.5,102.4s221.4,33.2,221.4,33.2
					l33.6-135.6L325.6-657.8z"/>
			</g>
			<path class="st6" d="M423.3-653.6c0,0,71.4,121.8,95.3,109.7c23.9-12-94.5,33.7-94.5,33.7L320.6-593L423.3-653.6z"/>
		</g>
		<ellipse class="st6" cx="268.6" cy="-611.5" rx="52" ry="24.1"/>
	</g>
</g>
<path class="st7" d="M481.2-637.5"/>
<path class="st8" d="M143.2-521.7"/>
<g>
	<polygon class="st5" points="-0.1,-616.3 0,-528.2 92.4,-528.2 	"/>
	<g>
		<g>
			<ellipse class="st5" cx="103.4" cy="-582.9" rx="100" ry="59.4"/>
			<path class="st5" d="M87-677.5c0,0,19.3,35.2,45,37.7s43.3,40,43.3,40L30-551l-13-83.4L87-677.5z"/>
		</g>
		<path class="st5" d="M11.4-712.8c-3.9,0-7.7,0.2-11.4,0.6v41v19.7v48.2c3.7,0.4,7.5,0.5,11.4,0.5c44.7,0,81-24.6,81-55
			S56.1-712.8,11.4-712.8z"/>
	</g>
</g>
<path class="st4" d="M30-443.9"/>
<g>
	<g>
		<g>
			<g>
				<path class="st9" d="M595.3-605.3l-33.1-9.6c0,0-17.3,25.8-54.7,31.2c-12.9,1.9-22.7,6-31,11.4c-11.5,7.5-42.4,21.8-63.2,13.4
					c-20.8-8.4-35.5-4.5-45.1,1.5c-6.3,3.9-17.9,13.6-22.2,19.6c-6.7,9.3-15.3,31.3-17.4,42.7c-3.2,17.2,1.6,67.1-30.4,62.9
					c-32-4.2-25.4,79.2-25.4,79.2l322.5,39.6"/>
			</g>
			<path class="st9" d="M556.7-607.6c32.5-23.6,38.6,16.2,38.6,16.2s-48.2,57.8-50.1,58.3s-80.1-7.8-80.1-7.8"/>
		</g>
	</g>
	<g>
		<path class="st9" d="M595.3-637.5c-23.6,5.6-41.1,25.4-41.1,49.1c0,23.7,17.5,43.5,41.1,49.1V-637.5z"/>
	</g>
</g>
<g>
	<path class="st9" d="M270.2-521.7c26.3,113.4,11.1,147.1,11.1,147.1L0-372.7v-163.8l141.4,53L270.2-521.7z"/>
	<g>
		<path class="st9" d="M181-567.6L181-567.6C181-567.6,181-567.6,181-567.6c-0.4,0.6-4.2,5.5-10.5,11.8
			c-22.7,22.5-78.7,61.9-131.9-28.5l0,0L8.3-573l-3.5,42.4l53,31.1l135.5,29.9l1.9,0L181-567.6z"/>
		<path class="st9" d="M38.7-584.3c-1.6-2.9-3.4-5.6-5.6-7.8c-5.4-5.6-12.4-9-20.1-9c-4.7,0-9.1,1.2-13,3.5l0,0v65
			c1.5,0.9,3.2,1.6,4.8,2.1L8.3-573L38.7-584.3z"/>
		<path class="st9" d="M213.3-580.6c-11.9,0-23,4.8-32.2,13l14.1,98.1l-1.9,0c34.4,6.2,79-4.2,79-31.3
			C272.3-544.8,245.8-580.6,213.3-580.6z"/>
		<path class="st9" d="M170.6-555.8c6.3-6.3,10-11.2,10.4-11.7C177.2-564.2,173.7-560.3,170.6-555.8z"/>
	</g>
</g>
<g>
	<g>
		<g>
			<ellipse class="st10" cx="120.9" cy="-422" rx="40.9" ry="47"/>
			<ellipse class="st10" cx="293.9" cy="-396.6" rx="94" ry="53"/>
			<path class="st10" d="M0-519.6c51.9-0.8,30.3,83.5,65.7,70s47-18.5,47-18.5l25.9,56.5l-42.4,73.8L0-372.7v-76.8V-519.6z"/>
			<path class="st10" d="M135.2-466.1c46,14.5,18,45.1,61.8,37.4c43.8-7.8,36.6-19.8,82-20.2c45.4-0.4,67.6,24,67.6,24l4.9,96.9
				c0,0-229.3,37.8-238.2,38.2c-8.9,0.4-105.3-12.9-105.3-12.9l31-82l94.3-81.4H135.2z"/>
		</g>
		<polygon class="st10" points="0,-368.1 0,0 595.3,0 595.3,-382.9 0,-382.9 		"/>
	</g>
	<g>
		<path class="st10" d="M595.3-512.7c-8.3,7.1-16.9,16.2-25.7,27.7c-72.4,95.9-155.3,110-189.9,67.1L267.5-375
			c0,0-3.8,39.1-3.5,43.1s68.3,56.3,78.7,57.3c10.3,1,140,9.3,145.7,9c2.9-0.2,55.4-2.2,106.9-4.5V-512.7z"/>
	</g>
</g>
<g>
	<path class="st11" d="M60.7-165.9c-25.7,0-48.2,10.6-60.7,26.4v57.2c12.5,15.8,35,26.4,60.7,26.4c39.2,0,71-24.6,71-55
		S99.9-165.9,60.7-165.9z"/>
	<path class="st11" d="M595.3-210.1c-14.3,7.7-30.2,37.4-46.7,56.6c-23.1,26.9-49.3,0.2-77.1-7.6S387-78.1,353-107.9
		s-77.3,2.7-113.5,9.7c-36.2,7-132.4-54.4-132.4-54.4c-45.4-18-82.6-10.2-107,0.7V0h595.3V-210.1z"/>
</g>
<path class="st0" d="M93.5,146.7"/>
<rect class="st12" width="595.3" height="841.9"/>
<path class="st2" d="M197,237.3"/>
<path class="st2" d="M383.5,350"/>
<path class="st3" d="M383.5,406.6"/>
<path class="st3" d="M119.5,262.7"/>
<path class="st4" d="M468.6,155.5"/>
<path class="st4" d="M565.4,134.9"/>
<path class="st7" d="M481.2,204.3"/>
<path class="st8" d="M143.2,320.2"/>
<path class="st4" d="M30,398"/>
<g>
	<path class="st11" d="M60.7,676C35,676,12.5,686.6,0,702.4v57.2C12.5,775.4,35,786,60.7,786c39.2,0,71-24.6,71-55
		S99.9,676,60.7,676z"/>
	<path class="st11" d="M595.3,631.8c-14.3,7.7-30.2,37.4-46.7,56.6c-23.1,26.9-49.3,0.2-77.1-7.6S387,763.8,353,734
		s-77.3,2.7-113.5,9.7c-36.2,7-132.4-54.4-132.4-54.4c-45.4-18-82.6-10.2-107,0.7v151.9h595.3V631.8z"/>
</g>
<ellipse class="st13" cx="262" cy="439.5" rx="72.3" ry="48.7"/>
<ellipse class="st13" cx="516" cy="398" rx="72.3" ry="48.7"/>
<path class="st14" d="M595.3,310.3c-16.7-21-21.1-41.3-52.3-69.6c-44-40-72,5.3-99.3,43.3c-27.3,38-44.7,70.7-130,37.3
	s-88.7,8-148,25.4C106.3,364.2,39,237.3,15.9,234.2c-4.1-0.6-9.6,0-15.9,1.4v606.4h595.3V310.3z"/>
</svg>
